User Type,Username,Date,Text
,Delah,2011-02-20T17:33Z,Hartelijk bedankt!
,keescon,2011-07-21T01:29Z,tankx die zocht ik
,revavoom,2012-01-25T08:55Z,"Sorry but
- encoded black borders = waisting bits
- blocky artifacts
- wrong Display aspect ratio = 3:2

Poor quality

Video 
ID : 0 
Format : MPEG-4 Visual 
Format profile : Simple@L3 
Format settings, BVOP : Yes 
Format settings, QPel : No 
Format settings, GMC : No warppoints 
Format settings, Matrix : Default (H.263) 
Codec ID : XVID 
Codec ID/Hint : XviD 
Duration : 1h 36mn 
Bit rate : 900 Kbps 
Width : 720 pixels 
Height : 480 pixels 
Display aspect ratio : 3:2 
Frame rate : 25.000 fps 
Standard : NTSC 
Color space : YUV 
Chroma subsampling : 4:2:0 
Bit depth : 8 bits 
Scan type : Progressive 
Compression mode : Lossy 
Bits/(Pixel*Frame) : 0.104 
Stream size : 621 MiB (87%) 

Audio 
ID : 1 
Format : MPEG Audio 
Format version : Version 1 
Format profile : Layer 3 
Mode : Joint stereo 
Codec ID : 55 
Codec ID/Hint : MP3 
Duration : 1h 36mn 
Bit rate mode : Constant 
Bit rate : 128 Kbps 
Channel(s) : 2 channels 
Sampling rate : 44.1 KHz 
Compression mode : Lossy 
Stream size : 88.1 MiB (12%) 
Alignment : Aligned on interleaves 
Interleave, duration : 26 ms (0.65 video frame) 
Writing library : LAME3.97 
"
